<mxfile host="app.diagrams.net" modified="2023-03-09T07:15:03.525Z" agent="5.0 (Windows NT 10.0; Win64; x64) AppleWebKit/537.36 (KHTML, like Gecko) Chrome/110.0.0.0 Safari/537.36" etag="8zspNJ8BtokQWRsHz3QS" version="21.0.4" type="github">
  <diagram name="Page-1" id="2YBvvXClWsGukQMizWep">
    <mxGraphModel dx="1434" dy="764" grid="1" gridSize="10" guides="1" tooltips="1" connect="1" arrows="1" fold="1" page="1" pageScale="1" pageWidth="850" pageHeight="1100" math="0" shadow="0">
      <root>
        <mxCell id="0" />
        <mxCell id="1" parent="0" />
        <mxCell id="0MKNSk-OUPgXn_HYRgrb-22" value="회원가입 / 로그인 / 소셜 로그인 기능" style="text;strokeColor=none;fillColor=none;html=1;fontSize=24;fontStyle=1;verticalAlign=middle;align=center;" vertex="1" parent="1">
          <mxGeometry x="375" y="50" width="100" height="40" as="geometry" />
        </mxCell>
        <mxCell id="0MKNSk-OUPgXn_HYRgrb-23" value="시스템" style="shape=umlLifeline;perimeter=lifelinePerimeter;whiteSpace=wrap;html=1;container=1;collapsible=0;recursiveResize=0;outlineConnect=0;rounded=1;shadow=0;comic=0;labelBackgroundColor=none;strokeWidth=1;fontFamily=Verdana;fontSize=12;align=center;" vertex="1" parent="1">
          <mxGeometry x="360" y="109" width="100" height="1491" as="geometry" />
        </mxCell>
        <mxCell id="0MKNSk-OUPgXn_HYRgrb-24" value="" style="endArrow=classic;html=1;rounded=0;" edge="1" parent="0MKNSk-OUPgXn_HYRgrb-23" target="0MKNSk-OUPgXn_HYRgrb-39">
          <mxGeometry width="50" height="50" relative="1" as="geometry">
            <mxPoint x="50" y="201" as="sourcePoint" />
            <mxPoint x="-40" y="201" as="targetPoint" />
          </mxGeometry>
        </mxCell>
        <mxCell id="0MKNSk-OUPgXn_HYRgrb-34" value="DB" style="shape=umlLifeline;perimeter=lifelinePerimeter;whiteSpace=wrap;html=1;container=1;collapsible=0;recursiveResize=0;outlineConnect=0;rounded=1;shadow=0;comic=0;labelBackgroundColor=none;strokeWidth=1;fontFamily=Verdana;fontSize=12;align=center;" vertex="1" parent="1">
          <mxGeometry x="690" y="109" width="100" height="1491" as="geometry" />
        </mxCell>
        <mxCell id="0MKNSk-OUPgXn_HYRgrb-35" value="" style="endArrow=classic;html=1;rounded=0;" edge="1" parent="0MKNSk-OUPgXn_HYRgrb-34">
          <mxGeometry width="50" height="50" relative="1" as="geometry">
            <mxPoint x="50" y="179" as="sourcePoint" />
            <mxPoint x="-280.5" y="179" as="targetPoint" />
          </mxGeometry>
        </mxCell>
        <mxCell id="0MKNSk-OUPgXn_HYRgrb-36" value="3.&amp;nbsp;" style="edgeLabel;html=1;align=right;verticalAlign=middle;resizable=0;points=[];fontSize=13;fontStyle=1" vertex="1" connectable="0" parent="0MKNSk-OUPgXn_HYRgrb-34">
          <mxGeometry x="48" y="169" as="geometry" />
        </mxCell>
        <mxCell id="0MKNSk-OUPgXn_HYRgrb-39" value="유저" style="shape=umlLifeline;perimeter=lifelinePerimeter;whiteSpace=wrap;html=1;container=1;collapsible=0;recursiveResize=0;outlineConnect=0;rounded=1;shadow=0;comic=0;labelBackgroundColor=none;strokeWidth=1;fontFamily=Verdana;fontSize=12;align=center;" vertex="1" parent="1">
          <mxGeometry x="60" y="109" width="100" height="1491" as="geometry" />
        </mxCell>
        <mxCell id="0MKNSk-OUPgXn_HYRgrb-40" value="" style="endArrow=classic;html=1;rounded=0;" edge="1" parent="1">
          <mxGeometry width="50" height="50" relative="1" as="geometry">
            <mxPoint x="110" y="229" as="sourcePoint" />
            <mxPoint x="409.5" y="229" as="targetPoint" />
          </mxGeometry>
        </mxCell>
        <mxCell id="0MKNSk-OUPgXn_HYRgrb-41" value="1.&amp;nbsp;" style="edgeLabel;html=1;align=left;verticalAlign=middle;resizable=0;points=[];fontSize=13;fontStyle=1" vertex="1" connectable="0" parent="0MKNSk-OUPgXn_HYRgrb-40">
          <mxGeometry x="-0.2454" y="4" relative="1" as="geometry">
            <mxPoint x="-113" y="-6" as="offset" />
          </mxGeometry>
        </mxCell>
        <mxCell id="0MKNSk-OUPgXn_HYRgrb-42" value="" style="endArrow=classic;html=1;rounded=0;" edge="1" parent="1">
          <mxGeometry width="50" height="50" relative="1" as="geometry">
            <mxPoint x="410" y="250" as="sourcePoint" />
            <mxPoint x="739.5" y="250" as="targetPoint" />
          </mxGeometry>
        </mxCell>
        <mxCell id="0MKNSk-OUPgXn_HYRgrb-43" value="2.&amp;nbsp;" style="edgeLabel;html=1;align=left;verticalAlign=middle;resizable=0;points=[];fontSize=13;fontStyle=1" vertex="1" connectable="0" parent="1">
          <mxGeometry x="410" y="240" as="geometry" />
        </mxCell>
        <mxCell id="0MKNSk-OUPgXn_HYRgrb-44" value="4.&amp;nbsp;" style="edgeLabel;html=1;align=right;verticalAlign=middle;resizable=0;points=[];fontSize=13;fontStyle=1" vertex="1" connectable="0" parent="1">
          <mxGeometry x="410" y="300" as="geometry" />
        </mxCell>
        <mxCell id="0MKNSk-OUPgXn_HYRgrb-45" value="조회" style="shape=umlFrame;whiteSpace=wrap;html=1;pointerEvents=0;fillColor=#d5e8d4;strokeColor=#82b366;" vertex="1" parent="1">
          <mxGeometry x="50" y="180" width="730" height="190" as="geometry" />
        </mxCell>
      </root>
    </mxGraphModel>
  </diagram>
</mxfile>
